<svg width="139" height="166" viewBox="0 0 139 166" fill="none" xmlns="http://www.w3.org/2000/svg">
<path d="M138 67C138 104.003 107.108 134 69 134C30.8924 134 0 104.003 0 67C0 29.9969 30.8924 0 69 0C107.108 0 138 29.9969 138 67ZM18.1911 67C18.1911 94.2476 40.939 116.336 69 116.336C97.061 116.336 119.809 94.2476 119.809 67C119.809 39.7524 97.061 17.6638 69 17.6638C40.939 17.6638 18.1911 39.7524 18.1911 67Z" fill="white"/>
<path d="M88 113.562L103.794 103L138.357 154.683L122.564 165.245L88 113.562Z" fill="white"/>
</svg>
