<svg width="45" height="59" viewBox="0 0 45 59" fill="none" xmlns="http://www.w3.org/2000/svg">
<path d="M32.625 8.86967C32.625 13.7682 28.0919 17.7393 22.5 17.7393C16.9081 17.7393 12.375 13.7682 12.375 8.86967C12.375 3.97108 16.9081 0 22.5 0C28.0919 0 32.625 3.97108 32.625 8.86967Z" fill="white"/>
<path d="M32.625 31.447C32.625 36.3456 28.0919 40.3167 22.5 40.3167C16.9081 40.3167 12.375 36.3456 12.375 31.447C12.375 26.5484 16.9081 22.5773 22.5 22.5773C28.0919 22.5773 32.625 26.5484 32.625 31.447Z" fill="white"/>
<path d="M12.375 8.86967H32.625V31.447H12.375V8.86967Z" fill="white"/>
<path d="M45 32.5794C45 34.8562 44.418 37.1107 43.2873 39.2142C42.1566 41.3178 40.4992 43.229 38.4099 44.839C36.3206 46.449 33.8402 47.726 31.1104 48.5973C28.3806 49.4687 25.4547 49.9171 22.5 49.9171C19.5453 49.9171 16.6194 49.4687 13.8896 48.5973C11.1598 47.726 8.67941 46.449 6.5901 44.839C4.50078 43.229 2.84344 41.3178 1.71271 39.2142C0.581979 37.1107 -2.58312e-07 34.8562 0 32.5794H4.75978C4.75978 34.3746 5.21864 36.1521 6.11017 37.8107C7.0017 39.4692 8.30844 40.9762 9.95577 42.2455C11.6031 43.5149 13.5588 44.5218 15.7111 45.2088C17.8635 45.8958 20.1703 46.2494 22.5 46.2494C24.8297 46.2494 27.1365 45.8958 29.2889 45.2088C31.4412 44.5218 33.3969 43.5149 35.0442 42.2455C36.6916 40.9762 37.9983 39.4692 38.8898 37.8107C39.7814 36.1521 40.2402 34.3746 40.2402 32.5794H45Z" fill="white"/>
<path d="M20.25 47.6917H24.75V59H20.25V47.6917Z" fill="white"/>
</svg>
