<svg width="20" height="20" viewBox="0 0 20 20" fill="none" xmlns="http://www.w3.org/2000/svg">
<path d="M20 10C20 15.5228 15.5228 20 10 20C4.47715 20 0 15.5228 0 10C0 4.47715 4.47715 0 10 0C15.5228 0 20 4.47715 20 10ZM1.17771 10C1.17771 14.8724 5.12758 18.8223 10 18.8223C14.8724 18.8223 18.8223 14.8724 18.8223 10C18.8223 5.12758 14.8724 1.17771 10 1.17771C5.12758 1.17771 1.17771 5.12758 1.17771 10Z" fill="#D9D9D9"/>
<path d="M16 10C16 13.3137 13.3137 16 10 16C6.68629 16 4 13.3137 4 10C4 6.68629 6.68629 4 10 4C13.3137 4 16 6.68629 16 10ZM4.91856 10C4.91856 12.8064 7.1936 15.0814 10 15.0814C12.8064 15.0814 15.0814 12.8064 15.0814 10C15.0814 7.1936 12.8064 4.91856 10 4.91856C7.1936 4.91856 4.91856 7.1936 4.91856 10Z" fill="#D9D9D9"/>
<path d="M13.0089 10.0023L8.52435 12.6189L8.50051 7.42689L13.0089 10.0023Z" fill="#D9D9D9"/>
</svg>

