<svg width="75" height="75" viewBox="0 0 75 75" fill="none" xmlns="http://www.w3.org/2000/svg">
<path d="M75 37.5C75 58.2107 58.2107 75 37.5 75C16.7893 75 0 58.2107 0 37.5C0 16.7893 16.7893 0 37.5 0C58.2107 0 75 16.7893 75 37.5ZM3.604 37.5C3.604 56.2202 18.7798 71.396 37.5 71.396C56.2202 71.396 71.396 56.2202 71.396 37.5C71.396 18.7798 56.2202 3.604 37.5 3.604C18.7798 3.604 3.604 18.7798 3.604 37.5Z" fill="#D9D9D9"/>
<path d="M50 26.5C50 33.4036 44.4036 39 37.5 39C30.5964 39 25 33.4036 25 26.5C25 19.5964 30.5964 14 37.5 14C44.4036 14 50 19.5964 50 26.5ZM27.5381 26.5C27.5381 32.0018 31.9982 36.4619 37.5 36.4619C43.0018 36.4619 47.4619 32.0018 47.4619 26.5C47.4619 20.9982 43.0018 16.5381 37.5 16.5381C31.9982 16.5381 27.5381 20.9982 27.5381 26.5Z" fill="#D9D9D9"/>
<path d="M64 64C64 58.1652 61.2607 52.5695 56.3848 48.4437C51.5088 44.3179 44.8956 42 38 42C31.1044 42 24.4912 44.3178 19.6152 48.4436C14.7393 52.5694 12 58.1652 12 64H15.6128C15.6128 58.976 17.9715 54.1578 22.1699 50.6053C26.3683 47.0528 32.0626 45.057 38 45.057C43.9374 45.057 49.6317 47.0528 53.8301 50.6053C58.0285 54.1578 60.3872 58.976 60.3872 64H64Z" fill="#D9D9D9"/>
</svg>
