<svg width="43" height="47" viewBox="0 0 43 47" fill="none" xmlns="http://www.w3.org/2000/svg">
<path d="M40 20C40 31.0457 31.0457 40 20 40C8.9543 40 0 31.0457 0 20C0 8.9543 8.9543 0 20 0C31.0457 0 40 8.9543 40 20ZM3.90115 20C3.90115 28.8912 11.1088 36.0989 20 36.0989C28.8912 36.0989 36.0989 28.8912 36.0989 20C36.0989 11.1088 28.8912 3.90114 20 3.90114C11.1088 3.90114 3.90115 11.1088 3.90115 20Z" fill="white"/>
<path d="M30 36.7335L32.9203 34L42.4875 44.221L39.5672 46.9545L30 36.7335Z" fill="white"/>
</svg>

